<svg width="19" height="16" viewBox="0 0 19 16" fill="none" xmlns="http://www.w3.org/2000/svg">
<path d="M12 3.75C12 3.34375 12.3125 3 12.75 3H18.25C18.6562 3 19 3.34375 19 3.75V9.25C19 9.6875 18.6562 10 18.25 10C17.8125 10 17.5 9.6875 17.5 9.25V5.5625L11.5 11.5312C11.2188 11.8438 10.75 11.8438 10.4688 11.5312L7 8.0625L2.25 12.7812C1.96875 13.0938 1.5 13.0938 1.21875 12.7812C0.90625 12.5 0.90625 12.0312 1.21875 11.7188L6.46875 6.46875C6.75 6.1875 7.21875 6.1875 7.5 6.46875L11 9.96875L16.4375 4.5H12.75C12.3125 4.5 12 4.1875 12 3.75Z" fill="#16A34A"/>
</svg>
