<svg width="19" height="16" viewBox="0 0 19 16" fill="none" xmlns="http://www.w3.org/2000/svg">
<path d="M12.0834 11.5H15.7709L10.3334 6.0625L6.83337 9.53125C6.55212 9.84375 6.08337 9.84375 5.80212 9.53125L0.552124 4.28125C0.239624 4 0.239624 3.53125 0.552124 3.21875C0.833374 2.9375 1.30212 2.9375 1.58337 3.21875L6.33337 7.96875L9.80212 4.46875C10.0834 4.1875 10.5521 4.1875 10.8334 4.46875L16.8334 10.4688V6.75C16.8334 6.34375 17.1459 6 17.5834 6C17.9896 6 18.3334 6.34375 18.3334 6.75V12.25C18.3334 12.6875 17.9896 13 17.5834 13H12.0834C11.6459 13 11.3334 12.6875 11.3334 12.25C11.3334 11.8438 11.6459 11.5 12.0834 11.5Z" fill="#DC2626"/>
</svg>
