<svg width="20" height="21" viewBox="0 0 20 21" fill="none" xmlns="http://www.w3.org/2000/svg">
<path d="M10 4.875C11.875 4.875 13.4375 6.4375 13.4375 8.3125C13.4375 10.2266 11.875 11.75 10 11.75C8.08594 11.75 6.5625 10.2266 6.5625 8.3125C6.5625 6.4375 8.08594 4.875 10 4.875ZM10 9.875C10.8594 9.875 11.5625 9.21094 11.5625 8.3125C11.5625 7.45312 10.8594 6.75 10 6.75C9.10156 6.75 8.4375 7.45312 8.4375 8.3125C8.4375 9.21094 9.10156 9.875 10 9.875ZM10 0.5C15.5078 0.5 20 4.99219 20 10.5C20 16.0469 15.5078 20.5 10 20.5C4.45312 20.5 0 16.0469 0 10.5C0 4.99219 4.45312 0.5 10 0.5ZM10 18.625C11.7969 18.625 13.4766 18.0391 14.8438 17.0234C14.1797 15.7344 12.8516 14.875 11.3672 14.875H8.59375C7.10938 14.875 5.78125 15.6953 5.11719 17.0234C6.48438 18.0391 8.16406 18.625 10 18.625ZM16.25 15.6953C17.4219 14.2891 18.125 12.4922 18.125 10.5C18.125 6.04688 14.4531 2.375 10 2.375C5.50781 2.375 1.875 6.04688 1.875 10.5C1.875 12.4922 2.53906 14.2891 3.71094 15.6953C4.76562 14.0547 6.5625 13 8.59375 13H11.3672C13.3984 13 15.1953 14.0547 16.25 15.6953Z" fill="#A3A3A3"/>
</svg>
