<svg width="18" height="21" viewBox="0 0 18 21" fill="none" xmlns="http://www.w3.org/2000/svg">
<path d="M4.625 4.875C4.625 2.49219 6.57812 0.5 9 0.5C11.3828 0.5 13.375 2.49219 13.375 4.875V6.75H15.875C16.8906 6.75 17.75 7.60938 17.75 8.625V16.75C17.75 18.8203 16.0703 20.5 14 20.5H4C1.89062 20.5 0.25 18.8203 0.25 16.75V8.625C0.25 7.60938 1.07031 6.75 2.125 6.75H4.625V4.875ZM6.5 6.75H11.5V4.875C11.5 3.50781 10.3672 2.375 9 2.375C7.59375 2.375 6.5 3.50781 6.5 4.875V6.75ZM5.5625 10.5C6.07031 10.5 6.5 10.1094 6.5 9.5625C6.5 9.05469 6.07031 8.625 5.5625 8.625C5.01562 8.625 4.625 9.05469 4.625 9.5625C4.625 10.1094 5.01562 10.5 5.5625 10.5ZM12.4375 8.625C11.8906 8.625 11.5 9.05469 11.5 9.5625C11.5 10.1094 11.8906 10.5 12.4375 10.5C12.9453 10.5 13.375 10.1094 13.375 9.5625C13.375 9.05469 12.9453 8.625 12.4375 8.625Z" fill="#171717"/>
</svg>
