<svg width="20" height="21" viewBox="0 0 20 21" fill="none" xmlns="http://www.w3.org/2000/svg">
<path d="M11.25 1.75V2.45312C14.0625 2.92188 16.25 5.38281 16.25 8.3125V9.64062C16.25 11.3984 16.8359 13.1172 17.9297 14.5234L18.5156 15.2266C18.75 15.5391 18.7891 15.9297 18.6328 16.2422C18.4766 16.5547 18.1641 16.75 17.8125 16.75H2.1875C1.79688 16.75 1.48438 16.5547 1.32812 16.2422C1.17188 15.9297 1.21094 15.5391 1.44531 15.2266L2.03125 14.5234C3.125 13.1172 3.75 11.3984 3.75 9.64062V8.3125C3.75 5.38281 5.89844 2.92188 8.75 2.45312V1.75C8.75 1.08594 9.29688 0.5 10 0.5C10.6641 0.5 11.25 1.08594 11.25 1.75ZM9.6875 4.25C7.42188 4.25 5.625 6.08594 5.625 8.3125V9.64062C5.625 11.5156 5.07812 13.3125 4.0625 14.875H15.8984C14.8828 13.3125 14.375 11.5156 14.375 9.64062V8.3125C14.375 6.08594 12.5391 4.25 10.3125 4.25H9.6875ZM12.5 18C12.5 18.6641 12.2266 19.3281 11.7578 19.7969C11.2891 20.2656 10.625 20.5 10 20.5C9.33594 20.5 8.67188 20.2656 8.20312 19.7969C7.73438 19.3281 7.5 18.6641 7.5 18H12.5Z" fill="#171717"/>
</svg>
