<svg width="20" height="21" viewBox="0 0 20 21" fill="none" xmlns="http://www.w3.org/2000/svg">
<path d="M7.1875 3H12.8125V1.4375C12.8125 0.929688 13.2031 0.5 13.75 0.5C14.2578 0.5 14.6875 0.929688 14.6875 1.4375V3H16.25C17.6172 3 18.75 4.13281 18.75 5.5V18C18.75 19.4062 17.6172 20.5 16.25 20.5H3.75C2.34375 20.5 1.25 19.4062 1.25 18V5.5C1.25 4.13281 2.34375 3 3.75 3H5.3125V1.4375C5.3125 0.929688 5.70312 0.5 6.25 0.5C6.75781 0.5 7.1875 0.929688 7.1875 1.4375V3ZM3.125 18C3.125 18.3516 3.39844 18.625 3.75 18.625H16.25C16.5625 18.625 16.875 18.3516 16.875 18V8H3.125V18Z" fill="#171717"/>
</svg>
