<svg width="19" height="16" viewBox="0 0 19 16" fill="none" xmlns="http://www.w3.org/2000/svg">
<path d="M19 4.25C19 4.96875 18.4375 5.5 17.75 5.5C17.7188 5.5 17.7188 5.5 17.7188 5.5L16.125 14.1875C16.0625 14.6562 15.625 15 15.1562 15H4.8125C4.34375 15 3.90625 14.6562 3.84375 14.1875L2.25 5.5C2.25 5.5 2.25 5.5 2.21875 5.5C1.53125 5.5 0.96875 4.96875 0.96875 4.25C0.96875 3.5625 1.53125 3 2.21875 3C2.875 3 3.46875 3.5625 3.46875 4.25C3.46875 4.53125 3.34375 4.78125 3.1875 5L6 7.25C6.5 7.625 7.21875 7.46875 7.5 6.90625L9.3125 3.3125C8.96875 3.09375 8.71875 2.71875 8.71875 2.25C8.71875 1.5625 9.28125 1 10 1C10.6875 1 11.2188 1.5625 11.2188 2.25C11.2188 2.71875 10.9688 3.09375 10.5938 3.3125L12.4062 6.90625C12.6875 7.46875 13.4375 7.625 13.9375 7.25L16.7188 5C16.5938 4.78125 16.5 4.53125 16.5 4.25C16.5 3.5625 17.0312 3 17.75 3C18.4375 3 19 3.5625 19 4.25Z" fill="#EAB308"/>
</svg>
