<svg width="40" height="40" viewBox="0 0 40 40" fill="none" xmlns="http://www.w3.org/2000/svg">
<g clip-path="url(#clip0_557_2529)">
<path d="M0.5 8C0.5 3.85786 3.85786 0.5 8 0.5H32C36.1421 0.5 39.5 3.85786 39.5 8V32C39.5 36.1421 36.1421 39.5 32 39.5H8C3.85786 39.5 0.5 36.1421 0.5 32V8Z" fill="white"/>
<path d="M0.5 8C0.5 3.85786 3.85786 0.5 8 0.5H32C36.1421 0.5 39.5 3.85786 39.5 8V32C39.5 36.1421 36.1421 39.5 32 39.5H8C3.85786 39.5 0.5 36.1421 0.5 32V8Z" stroke="#E5E5E5"/>
<path d="M24.375 20.5C24.375 19.4844 25.1953 18.625 26.25 18.625C27.2656 18.625 28.125 19.4844 28.125 20.5C28.125 21.5547 27.2656 22.375 26.25 22.375C25.1953 22.375 24.375 21.5547 24.375 20.5ZM18.125 20.5C18.125 19.4844 18.9453 18.625 20 18.625C21.0156 18.625 21.875 19.4844 21.875 20.5C21.875 21.5547 21.0156 22.375 20 22.375C18.9453 22.375 18.125 21.5547 18.125 20.5ZM15.625 20.5C15.625 21.5547 14.7656 22.375 13.75 22.375C12.6953 22.375 11.875 21.5547 11.875 20.5C11.875 19.4844 12.6953 18.625 13.75 18.625C14.7656 18.625 15.625 19.4844 15.625 20.5Z" fill="#171717"/>
</g>
<defs>
<clipPath id="clip0_557_2529">
<path d="M0 8C0 3.58172 3.58172 0 8 0H32C36.4183 0 40 3.58172 40 8V32C40 36.4183 36.4183 40 32 40H8C3.58172 40 0 36.4183 0 32V8Z" fill="white"/>
</clipPath>
</defs>
</svg>
