<svg width="24" height="24" viewBox="0 0 24 24" fill="none" xmlns="http://www.w3.org/2000/svg">
<g id="Facebook" clip-path="url(#clip0_625_3156)">
<g id="g17">
<g id="g19">
<g id="Clip path group">
<mask id="mask0_625_3156" style="mask-type:luminance" maskUnits="userSpaceOnUse" x="-5" y="-5" width="34" height="34">
<g id="clipPath25">
<path id="path23" d="M-4.80005 -4.80001H28.7999V28.8H-4.80005V-4.80001Z" fill="white"/>
</g>
</mask>
<g mask="url(#mask0_625_3156)">
<g id="g21">
<g id="g27">
<path id="path29" d="M24 12C24 5.37259 18.6274 -1.90735e-06 12 -1.90735e-06C5.37259 -1.90735e-06 0 5.37259 0 12C0 17.6278 3.87432 22.3499 9.10109 23.6466V15.667H6.62659V12H9.10109V10.4199C9.10109 6.33547 10.9495 4.44235 14.9594 4.44235C15.7196 4.44235 17.0314 4.59139 17.568 4.74048V8.06467C17.2848 8.03486 16.7929 8.01993 16.1817 8.01993C14.214 8.01993 13.4538 8.76528 13.4538 10.7031V12H17.3734L16.7001 15.667H13.4538V23.9121C19.3955 23.1945 24 18.1353 24 12Z" fill="#0866FF"/>
</g>
<g id="g31">
<path id="path33" d="M16.7001 15.667L17.3735 12H13.4538V10.7031C13.4538 8.76523 14.214 8.01994 16.1817 8.01994C16.7929 8.01994 17.2848 8.03482 17.568 8.06462V4.74048C17.0314 4.59139 15.7196 4.4423 14.9594 4.4423C10.9495 4.4423 9.10108 6.33547 9.10108 10.4199V12H6.62659V15.667H9.10108V23.6466C10.0295 23.8769 11.0003 24 12 24C12.4922 24 12.9772 23.9697 13.4538 23.9121V15.667H16.7001Z" fill="white"/>
</g>
</g>
</g>
</g>
</g>
</g>
</g>
<defs>
<clipPath id="clip0_625_3156">
<rect width="24" height="24" fill="white"/>
</clipPath>
</defs>
</svg>
