<svg width="24" height="20" viewBox="0 0 24 20" fill="none" xmlns="http://www.w3.org/2000/svg">
<path d="M23.0938 11.0859L19.3438 18.5859C19.1484 19.0156 18.7188 19.25 18.2109 19.25H3.25C1.84375 19.25 0.75 18.1562 0.75 16.75V4.25C0.75 2.88281 1.84375 1.75 3.25 1.75H7.82031C8.48438 1.75 9.10938 2.02344 9.57812 2.49219L11.4922 4.25H17C18.3672 4.25 19.5 5.38281 19.5 6.75V8H17.625V6.75C17.625 6.4375 17.3125 6.125 17 6.125H10.75L8.25 3.82031C8.13281 3.70312 7.97656 3.625 7.82031 3.625H3.25C2.89844 3.625 2.625 3.9375 2.625 4.25V15.5L5.39844 9.95312C5.59375 9.52344 6.02344 9.25 6.49219 9.25H22C22.8984 9.25 23.5234 10.2266 23.0938 11.0859Z" fill="#171717"/>
</svg>
