<svg width="20" height="21" viewBox="0 0 20 21" fill="none" xmlns="http://www.w3.org/2000/svg">
<path d="M13.5156 14.25C16.4062 14.25 18.75 16.5938 18.75 19.4844C18.75 20.0703 18.2812 20.5 17.6953 20.5H2.26562C1.67969 20.5 1.25 20.0703 1.25 19.4844C1.25 16.5938 3.55469 14.25 6.44531 14.25H13.5156ZM3.20312 18.625H16.7578C16.3672 17.2188 15.0781 16.125 13.5156 16.125H6.44531C4.88281 16.125 3.59375 17.2188 3.20312 18.625ZM10 4.875C8.24219 4.875 6.875 6.28125 6.875 8C6.875 8.78125 7.14844 9.44531 7.57812 9.99219C7.14844 10.4609 6.875 11.0859 6.875 11.75C6.875 11.8281 6.875 11.8672 6.875 11.9062C5.74219 11.0078 5 9.60156 5 8C5 5.26562 7.22656 3 10 3C12.7344 3 15 5.26562 15 8C15 8.58594 14.8828 9.13281 14.6875 9.64062C14.375 10.1484 13.7891 10.5 13.125 10.5H12.7734C12.6562 10.3438 12.5391 10.1484 12.3828 9.99219C12.8125 9.44531 13.125 8.78125 13.125 8C13.125 6.28125 11.7188 4.875 10 4.875ZM3.125 9.25C2.77344 9.25 2.5 8.97656 2.5 8.625V8C2.5 3.89844 5.85938 0.5 10 0.5C14.1016 0.5 17.5 3.89844 17.5 8V8.625C17.4609 11.0469 15.5078 13 13.125 13H9.375C8.67188 13 8.125 12.4531 8.125 11.75C8.125 11.0859 8.67188 10.5 9.375 10.5H10.625C11.2891 10.5 11.875 11.0859 11.875 11.75H13.125C14.8438 11.75 16.25 10.3828 16.25 8.625V8C16.25 4.5625 13.4375 1.75 10 1.75C6.52344 1.75 3.75 4.5625 3.75 8V8.625C3.75 8.97656 3.4375 9.25 3.125 9.25Z" fill="#171717"/>
</svg>
