<svg width="26" height="21" viewBox="0 0 26 21" fill="none" xmlns="http://www.w3.org/2000/svg">
<path d="M6.35938 4.13281C8.11719 2.80469 10.3047 1.75 13 1.75C16.125 1.75 18.6641 3.19531 20.5 4.91406C22.3359 6.59375 23.5469 8.625 24.1328 10.0312C24.25 10.3438 24.25 10.6953 24.1328 11.0078C23.625 12.2578 22.5703 14.0547 21.0078 15.6172L25.1094 18.8594C25.5391 19.1719 25.6172 19.7578 25.2656 20.1484C24.9531 20.5781 24.3672 20.6562 23.9766 20.3047L0.851562 2.17969C0.421875 1.86719 0.34375 1.28125 0.695312 0.890625C1.00781 0.460938 1.59375 0.382812 1.98438 0.734375L6.35938 4.13281ZM7.88281 5.34375L9.67969 6.75C10.5781 5.96875 11.7109 5.5 13 5.5C15.7344 5.5 18 7.76562 18 10.5C18 11.3594 17.7656 12.1406 17.4141 12.8047L19.5234 14.4453C20.8516 13.1172 21.7891 11.5938 22.2969 10.5C21.75 9.32812 20.7344 7.6875 19.2109 6.28125C17.6094 4.79688 15.5391 3.625 13 3.625C11.0078 3.625 9.28906 4.32812 7.88281 5.34375ZM15.8906 11.6328C16.0469 11.2812 16.125 10.8906 16.125 10.5C16.125 8.78125 14.7188 7.375 13 7.375C12.9609 7.375 12.9219 7.375 12.8828 7.375C12.9609 7.60938 13 7.80469 13 8C13 8.42969 12.8828 8.78125 12.7266 9.13281L15.8906 11.6328ZM16.2812 16.7109L17.9219 18C16.4766 18.7812 14.8359 19.25 13 19.25C9.83594 19.25 7.29688 17.8438 5.46094 16.125C3.625 14.4062 2.41406 12.375 1.82812 11.0078C1.71094 10.6953 1.71094 10.3438 1.82812 10.0312C2.21875 9.13281 2.84375 8 3.74219 6.82812L5.1875 8C4.48438 8.89844 3.97656 9.79688 3.66406 10.5C4.21094 11.6719 5.22656 13.3516 6.75 14.7578C8.35156 16.2422 10.4219 17.375 13 17.375C14.1719 17.375 15.2656 17.1406 16.2812 16.7109ZM8 10.5C8 10.4219 8 10.3047 8 10.1875L10.1875 11.9062C10.5781 12.7266 11.3594 13.3516 12.2969 13.5469L14.4844 15.3047C14.0156 15.4219 13.5078 15.5 12.9609 15.5C10.2266 15.5 7.96094 13.2734 7.96094 10.5H8Z" fill="#171717"/>
</svg>
