<svg width="24" height="24" viewBox="0 0 24 24" fill="none" xmlns="http://www.w3.org/2000/svg">
<path d="M21 7.5C22.6406 7.5 24 8.85938 24 10.5V21C24 22.6875 22.6406 24 21 24H3C1.3125 24 0 22.6875 0 21V10.5C0 8.85938 1.3125 7.5 3 7.5H21ZM21 9.75H3C2.57812 9.75 2.25 10.125 2.25 10.5V21C2.25 21.4219 2.57812 21.75 3 21.75H21C21.375 21.75 21.75 21.4219 21.75 21V10.5C21.75 10.125 21.375 9.75 21 9.75ZM20.625 3.75C21.2344 3.75 21.75 4.26562 21.75 4.875C21.75 5.53125 21.2344 6 20.625 6H3.375C2.71875 6 2.25 5.53125 2.25 4.875C2.25 4.26562 2.71875 3.75 3.375 3.75H20.625ZM18.375 0C18.9844 0 19.5 0.515625 19.5 1.125C19.5 1.78125 18.9844 2.25 18.375 2.25H5.625C4.96875 2.25 4.5 1.78125 4.5 1.125C4.5 0.515625 4.96875 0 5.625 0H18.375Z" fill="#A3A3A3"/>
</svg>
