<svg width="20" height="21" viewBox="0 0 20 21" fill="none" xmlns="http://www.w3.org/2000/svg">
<path d="M6.25 8C6.25 7.33594 6.79688 6.75 7.5 6.75C8.16406 6.75 8.75 7.33594 8.75 8C8.75 8.70312 8.16406 9.25 7.5 9.25C6.79688 9.25 6.25 8.70312 6.25 8ZM13.75 13C13.75 13.7031 13.1641 14.25 12.5 14.25C11.7969 14.25 11.25 13.7031 11.25 13C11.25 12.3359 11.7969 11.75 12.5 11.75C13.1641 11.75 13.75 12.3359 13.75 13ZM8.125 13.6641C7.77344 14.0547 7.1875 14.0547 6.83594 13.6641C6.44531 13.3125 6.44531 12.7266 6.83594 12.3359L11.8359 7.33594C12.1875 6.98438 12.7734 6.98438 13.125 7.33594C13.5156 7.72656 13.5156 8.3125 13.125 8.66406L8.125 13.6641ZM13.4375 2.21875C14.7266 2.0625 16.0547 2.45312 17.0703 3.42969C18.0469 4.44531 18.4375 5.77344 18.2812 7.0625C19.2969 7.88281 20 9.13281 20 10.5C20 11.9062 19.2969 13.1562 18.2812 13.9766C18.4375 15.2266 18.0469 16.5938 17.0703 17.5703C16.0547 18.5859 14.7266 18.9766 13.4375 18.8203C12.6172 19.8359 11.3672 20.5 10 20.5C8.59375 20.5 7.34375 19.8359 6.52344 18.8203C5.23438 18.9766 3.90625 18.5859 2.89062 17.5703C1.91406 16.5938 1.52344 15.2266 1.67969 13.9766C0.664062 13.1562 0 11.9062 0 10.5C0 9.13281 0.664062 7.88281 1.67969 7.0625C1.52344 5.77344 1.91406 4.44531 2.89062 3.42969C3.90625 2.45312 5.23438 2.0625 6.52344 2.21875C7.34375 1.20312 8.59375 0.5 10 0.5C11.3672 0.5 12.6172 1.20312 13.4375 2.21875ZM7.42188 4.40625L6.71875 4.17188C5.85938 3.89844 4.88281 4.09375 4.21875 4.75781C3.55469 5.42188 3.35938 6.39844 3.63281 7.21875L3.86719 7.96094L3.16406 8.35156C2.38281 8.74219 1.875 9.5625 1.875 10.5C1.875 11.4766 2.38281 12.2969 3.16406 12.6875L3.86719 13.0391L3.63281 13.7812C3.35938 14.6406 3.55469 15.5781 4.21875 16.2812C4.88281 16.9453 5.85938 17.1406 6.71875 16.8672L7.42188 16.6328L7.8125 17.3359C8.20312 18.1172 9.02344 18.625 10 18.625C10.9375 18.625 11.7578 18.1172 12.1484 17.3359L12.5391 16.6328L13.2422 16.8672C14.1016 17.1406 15.0781 16.9453 15.7422 16.2812C16.4062 15.5781 16.6016 14.6406 16.3281 13.7812L16.0938 13.0391L16.7969 12.6875C17.5781 12.2969 18.125 11.4766 18.125 10.5C18.125 9.5625 17.5781 8.74219 16.7969 8.35156L16.0938 7.96094L16.3281 7.21875C16.6016 6.39844 16.4062 5.42188 15.7422 4.75781C15.0781 4.09375 14.1016 3.89844 13.2422 4.17188L12.5391 4.40625L12.1484 3.70312C11.7578 2.92188 10.9375 2.375 10 2.375C9.02344 2.375 8.20312 2.92188 7.8125 3.70312L7.42188 4.40625Z" fill="#171717"/>
</svg>
