<svg width="18" height="19" viewBox="0 0 18 19" fill="none" xmlns="http://www.w3.org/2000/svg">
<path d="M9 9.5C10.3672 9.5 11.5 10.6328 11.5 12C11.5 13.4062 10.3672 14.5 9 14.5C7.59375 14.5 6.5 13.4062 6.5 12C6.5 10.6328 7.59375 9.5 9 9.5ZM17.1641 4.57812C17.5156 4.92969 17.75 5.4375 17.75 5.90625V15.75C17.75 17.1562 16.6172 18.25 15.25 18.25H2.75C1.34375 18.25 0.25 17.1562 0.25 15.75V3.25C0.25 1.88281 1.34375 0.75 2.75 0.75H12.5938C13.0625 0.75 13.5703 0.984375 13.8828 1.29688L17.1641 4.57812ZM5.25 2.625V5.75H10.875V2.625H5.25ZM15.875 15.75V6.02344C15.875 5.94531 15.8359 5.90625 15.7969 5.86719L12.75 2.78125V6.6875C12.75 7.23438 12.3203 7.625 11.8125 7.625H4.3125C3.76562 7.625 3.375 7.23438 3.375 6.6875V2.625H2.75C2.39844 2.625 2.125 2.9375 2.125 3.25V15.75C2.125 16.1016 2.39844 16.375 2.75 16.375H15.25C15.5625 16.375 15.875 16.1016 15.875 15.75Z" fill="white"/>
</svg>
