<svg width="18" height="21" viewBox="0 0 18 21" fill="none" xmlns="http://www.w3.org/2000/svg">
<path d="M4.625 6.75V4.875C4.625 2.49219 6.57812 0.5 9 0.5C11.3828 0.5 13.375 2.49219 13.375 4.875V6.75H15.875C16.8906 6.75 17.75 7.60938 17.75 8.625V16.75C17.75 18.8203 16.0703 20.5 14 20.5H4C1.89062 20.5 0.25 18.8203 0.25 16.75V8.625C0.25 7.60938 1.07031 6.75 2.125 6.75H4.625ZM6.5 6.75H11.5V4.875C11.5 3.50781 10.3672 2.375 9 2.375C7.59375 2.375 6.5 3.50781 6.5 4.875V6.75ZM2.125 8.625V16.75C2.125 17.8047 2.94531 18.625 4 18.625H14C15.0156 18.625 15.875 17.8047 15.875 16.75V8.625H13.375V10.8125C13.375 11.3594 12.9453 11.75 12.4375 11.75C11.8906 11.75 11.5 11.3594 11.5 10.8125V8.625H6.5V10.8125C6.5 11.3594 6.07031 11.75 5.5625 11.75C5.01562 11.75 4.625 11.3594 4.625 10.8125V8.625H2.125Z" fill="#171717"/>
</svg>
