<svg width="24" height="19" viewBox="0 0 24 19" fill="none" xmlns="http://www.w3.org/2000/svg">
<path d="M7 9.5C7 6.76562 9.22656 4.5 12 4.5C14.7344 4.5 17 6.76562 17 9.5C17 12.2734 14.7344 14.5 12 14.5C9.22656 14.5 7 12.2734 7 9.5ZM12 12.625C13.7188 12.625 15.125 11.2578 15.125 9.5C15.125 7.78125 13.7188 6.375 12 6.375C11.9609 6.375 11.9219 6.375 11.8828 6.375C11.9609 6.60938 12 6.80469 12 7C12 8.40625 10.8672 9.5 9.5 9.5C9.26562 9.5 9.07031 9.5 8.875 9.42188C8.875 9.46094 8.875 9.5 8.875 9.5C8.875 11.2578 10.2422 12.625 12 12.625ZM4.46094 3.91406C6.29688 2.19531 8.83594 0.75 12 0.75C15.125 0.75 17.6641 2.19531 19.5 3.91406C21.3359 5.59375 22.5469 7.625 23.1328 9.03125C23.25 9.34375 23.25 9.69531 23.1328 10.0078C22.5469 11.375 21.3359 13.4062 19.5 15.125C17.6641 16.8438 15.125 18.25 12 18.25C8.83594 18.25 6.29688 16.8438 4.46094 15.125C2.625 13.4062 1.41406 11.375 0.828125 10.0078C0.710938 9.69531 0.710938 9.34375 0.828125 9.03125C1.41406 7.625 2.625 5.59375 4.46094 3.91406ZM12 2.625C9.42188 2.625 7.35156 3.79688 5.75 5.28125C4.22656 6.6875 3.21094 8.32812 2.66406 9.5C3.21094 10.6719 4.22656 12.3516 5.75 13.7578C7.35156 15.2422 9.42188 16.375 12 16.375C14.5391 16.375 16.6094 15.2422 18.2109 13.7578C19.7344 12.3516 20.75 10.6719 21.2969 9.5C20.75 8.32812 19.7344 6.6875 18.2109 5.28125C16.6094 3.79688 14.5391 2.625 12 2.625Z" fill="#171717"/>
</svg>
