<svg width="20" height="20" viewBox="0 0 20 20" fill="none" xmlns="http://www.w3.org/2000/svg">
<path d="M0 16.75C0 16.2422 0.390625 15.8125 0.9375 15.8125H3.24219C3.63281 14.5625 4.84375 13.625 6.25 13.625C7.61719 13.625 8.82812 14.5625 9.21875 15.8125H19.0625C19.5703 15.8125 20 16.2422 20 16.75C20 17.2969 19.5703 17.6875 19.0625 17.6875H9.21875C8.82812 18.9766 7.61719 19.875 6.25 19.875C4.84375 19.875 3.63281 18.9766 3.24219 17.6875H0.9375C0.390625 17.6875 0 17.2969 0 16.75ZM7.5 16.75C7.5 16.0859 6.91406 15.5 6.25 15.5C5.54688 15.5 5 16.0859 5 16.75C5 17.4531 5.54688 18 6.25 18C6.91406 18 7.5 17.4531 7.5 16.75ZM13.75 7.375C15.1172 7.375 16.3281 8.3125 16.7188 9.5625H19.0625C19.5703 9.5625 20 9.99219 20 10.5C20 11.0469 19.5703 11.4375 19.0625 11.4375H16.7188C16.3281 12.7266 15.1172 13.625 13.75 13.625C12.3438 13.625 11.1328 12.7266 10.7422 11.4375H0.9375C0.390625 11.4375 0 11.0469 0 10.5C0 9.99219 0.390625 9.5625 0.9375 9.5625H10.7422C11.1328 8.3125 12.3438 7.375 13.75 7.375ZM15 10.5C15 9.83594 14.4141 9.25 13.75 9.25C13.0469 9.25 12.5 9.83594 12.5 10.5C12.5 11.2031 13.0469 11.75 13.75 11.75C14.4141 11.75 15 11.2031 15 10.5ZM19.0625 3.3125C19.5703 3.3125 20 3.74219 20 4.25C20 4.79688 19.5703 5.1875 19.0625 5.1875H10.4688C10.0781 6.47656 8.86719 7.375 7.5 7.375C6.09375 7.375 4.88281 6.47656 4.49219 5.1875H0.9375C0.390625 5.1875 0 4.79688 0 4.25C0 3.74219 0.390625 3.3125 0.9375 3.3125H4.49219C4.88281 2.0625 6.09375 1.125 7.5 1.125C8.86719 1.125 10.0781 2.0625 10.4688 3.3125H19.0625ZM6.25 4.25C6.25 4.95312 6.79688 5.5 7.5 5.5C8.16406 5.5 8.75 4.95312 8.75 4.25C8.75 3.58594 8.16406 3 7.5 3C6.79688 3 6.25 3.58594 6.25 4.25Z" fill="#171717"/>
</svg>
