<svg width="18" height="19" viewBox="0 0 18 19" fill="none" xmlns="http://www.w3.org/2000/svg">
<path d="M9.625 0.75C10.6406 0.75 11.5 1.60938 11.5 2.625V16.375C11.5 17.4297 10.6406 18.25 9.625 18.25H8.375C7.32031 18.25 6.5 17.4297 6.5 16.375V2.625C6.5 1.60938 7.32031 0.75 8.375 0.75H9.625ZM9.625 2.625H8.375V16.375H9.625V2.625ZM3.375 8.25C4.39062 8.25 5.25 9.10938 5.25 10.125V16.375C5.25 17.4297 4.39062 18.25 3.375 18.25H2.125C1.07031 18.25 0.25 17.4297 0.25 16.375V10.125C0.25 9.10938 1.07031 8.25 2.125 8.25H3.375ZM3.375 10.125H2.125V16.375H3.375V10.125ZM12.75 5.125C12.75 4.10938 13.5703 3.25 14.625 3.25H15.875C16.8906 3.25 17.75 4.10938 17.75 5.125V16.375C17.75 17.4297 16.8906 18.25 15.875 18.25H14.625C13.5703 18.25 12.75 17.4297 12.75 16.375V5.125ZM14.625 16.375H15.875V5.125H14.625V16.375Z" fill="#171717"/>
</svg>
