<svg width="24" height="24" viewBox="0 0 24 24" fill="none" xmlns="http://www.w3.org/2000/svg">
<path d="M12 0C18.6094 0 24 5.39062 24 12C24 18.6562 18.6094 24 12 24C5.34375 24 0 18.6562 0 12C0 5.39062 5.34375 0 12 0ZM12 6C10.125 6 8.625 7.54688 8.625 9.375C8.625 11.25 10.125 12.75 12 12.75C13.8281 12.75 15.375 11.25 15.375 9.375C15.375 7.54688 13.8281 6 12 6ZM12 21C14.4375 21 16.6875 20.0156 18.3281 18.375C17.5781 16.4062 15.7031 15 13.5 15H10.5C8.25 15 6.375 16.4062 5.625 18.375C7.26562 20.0156 9.51562 21 12 21Z" fill="#171717"/>
</svg>
