<?xml version="1.0" encoding="UTF-8"?>
<svg version="1.1" xmlns="http://www.w3.org/2000/svg" width="32" height="32">
<path d="M0 0 C4.63081828 2.23556745 8.14555835 5.12546766 10 10 C10.9108394 16.13064978 10.98075153 21.48108501 7.25 26.625 C4.3460147 30.10098241 1.77114838 31.73685795 -2.734375 32.40625 C-9.36701575 32.61244609 -13.33207097 32.00105463 -18.4765625 27.703125 C-22.46905224 23.23972622 -22.53832496 18.86248448 -22.453125 13.0546875 C-21.74989708 8.31396132 -19.53604402 5.16297515 -16 2 C-11.14376405 -1.10716792 -5.53967629 -0.82174226 0 0 Z M-8 7 C-8.69159401 8.84725052 -8.69159401 8.84725052 -9 11 C-8.01 12.485 -8.01 12.485 -7 14 C-5.68 13.34 -4.36 12.68 -3 12 C-3.33 10.35 -3.66 8.7 -4 7 C-5.32 7 -6.64 7 -8 7 Z M-14 13 C-14.33 14.65 -14.66 16.3 -15 18 C-13.15274948 18.69159401 -13.15274948 18.69159401 -11 19 C-10.01 18.34 -9.02 17.68 -8 17 C-8.66 15.68 -9.32 14.36 -10 13 C-11.32 13 -12.64 13 -14 13 Z M-4 15 C-3.34 16.32 -2.68 17.64 -2 19 C-0.35 18.67 1.3 18.34 3 18 C2.67 16.35 2.34 14.7 2 13 C-1.18490007 12.7226499 -1.18490007 12.7226499 -4 15 Z M-7 18 C-7.66 18.66 -8.32 19.32 -9 20 C-8.67958603 22.60280568 -8.67958603 22.60280568 -8 25 C-6.35 24.67 -4.7 24.34 -3 24 C-3.33 22.35 -3.66 20.7 -4 19 C-4.99 18.67 -5.98 18.34 -7 18 Z " fill="#F87215" transform="translate(22,0)"/>
</svg>
